<?xml version="1.0" encoding="utf-8"?>
<!-- Generator: Adobe Illustrator 28.1.0, SVG Export Plug-In . SVG Version: 6.00 Build 0)  -->
<svg version="1.1" id="Capa_1" xmlns="http://www.w3.org/2000/svg" xmlns:xlink="http://www.w3.org/1999/xlink" x="0px" y="0px"
	 viewBox="0 0 800 800" style="enable-background:new 0 0 800 800;" xml:space="preserve">
<style type="text/css">
	.st0{fill:#FFFFFF;}
</style>
<path class="st0" d="M74.6,57.1h640.9c41.2,0,74.6,33.4,74.6,74.6s-33.4,74.6-74.6,74.6H74.6C33.4,206.3,0,172.9,0,131.7
	S33.4,57.1,74.6,57.1L74.6,57.1z"/>
<path class="st0" d="M74.6,325.4h640.9c41.2,0,74.6,33.4,74.6,74.6s-33.4,74.6-74.6,74.6H74.6C33.4,474.6,0,441.2,0,400
	S33.4,325.4,74.6,325.4L74.6,325.4z"/>
<path class="st0" d="M74.6,593.7h640.9c41.2,0,74.6,33.4,74.6,74.6c0,41.2-33.4,74.6-74.6,74.6H74.6C33.4,742.9,0,709.5,0,668.3
	C0,627.1,33.4,593.7,74.6,593.7L74.6,593.7z"/>
</svg>
